<?xml version="1.0" encoding="UTF-8" standalone="no"?>
<!DOCTYPE svg PUBLIC "-//W3C//DTD SVG 1.1//EN" "http://www.w3.org/Graphics/SVG/1.1/DTD/svg11.dtd">
<svg version="1.1" xmlns="http://www.w3.org/2000/svg" xmlns:xlink="http://www.w3.org/1999/xlink" preserveAspectRatio="xMidYMid meet" viewBox="0 0 640 640" width="640" height="640"><defs><path d="M95.06 273.45L95.06 273.45L95.06 273.45L95.06 273.45L95.06 273.45L95.06 273.46L95.06 273.46L95.06 273.46L95.06 273.46L95.06 273.46L95.06 273.46L95.06 273.46L95.06 273.46L95.06 273.46L95.06 273.46L95.06 273.46L95.06 273.46L95.06 273.47L95.06 273.47L95.06 273.47L95.06 273.47L95.06 273.47L95.06 273.47L95.07 273.47L95.07 273.47L95.07 273.47L95.07 273.47L95.07 273.47L95.07 273.47L95.07 273.47L95.07 273.47L95.07 273.47L95.07 273.47L95.07 273.47L95.07 273.47L95.07 273.47L95.08 273.47L95.08 273.47L95.08 273.47L95.08 273.47L95.08 273.47L95.17 273.47L95.17 273.47L95.17 273.47L95.17 273.47L95.17 273.47L95.18 273.47L95.18 273.47L95.18 273.47L95.18 273.47L95.18 273.47L95.18 273.47L95.18 273.47L95.18 273.47L95.18 273.47L95.18 273.47L95.18 273.47L95.18 273.47L95.19 273.47L95.19 273.47L95.19 273.47L95.19 273.47L95.19 273.47L95.19 273.47L95.19 273.47L95.19 273.46L95.19 273.46L95.19 273.46L95.19 273.46L95.19 273.46L95.19 273.46L95.19 273.46L95.19 273.46L95.19 273.46L95.19 273.46L95.19 273.46L95.19 273.46L95.19 273.45L95.19 273.45L95.19 273.45L95.19 273.45L95.19 273.45L95.19 273.21L95.29 273.11L95.19 273.11L95.19 272.79L94.99 272.79L94.99 272.79L94.99 272.79L94.99 273.01L94.99 273.01L94.99 273.01L94.99 273.01L94.99 273.02L94.99 273.02L94.99 273.02L94.99 273.02L94.99 273.02L94.99 273.02L94.99 273.02L94.99 273.02L94.99 273.02L94.99 273.02L94.99 273.02L94.99 273.02L94.99 273.03L94.98 273.03L94.98 273.03L94.98 273.03L94.98 273.03L94.98 273.03L94.98 273.03L94.98 273.03L94.98 273.03L94.98 273.03L94.98 273.03L94.98 273.03L94.98 273.03L94.98 273.03L94.98 273.03L94.97 273.03L94.97 273.03L94.97 273.03L94.97 273.04L94.97 273.04L94.97 273.04L94.97 273.04L94.97 273.04L94.97 273.04L94.97 273.04L94.87 273.04L94.87 273.04L94.87 273.04L94.87 273.04L94.87 273.04L94.87 273.04L94.87 273.04L94.87 273.03L94.86 273.03L94.86 273.03L94.86 273.03L94.86 273.03L94.86 273.03L94.86 273.03L94.86 273.03L94.86 273.03L94.86 273.03L94.86 273.03L94.86 273.03L94.86 273.03L94.86 273.03L94.85 273.03L94.85 273.03L94.85 273.03L94.85 273.03L94.85 273.02L94.85 273.02L94.85 273.02L94.85 273.02L94.85 273.02L94.85 273.02L94.85 273.02L94.85 273.02L94.85 273.02L94.85 273.02L94.85 273.02L94.85 273.02L94.85 273.01L94.85 273.01L94.85 273.01L94.85 273.01L94.85 272.79L94.85 272.79L94.85 272.79L94.64 272.79L94.64 273.11L94.55 273.11L94.92 273.52L95.06 273.37L95.06 273.45Z" id="d5BtXAdFt"></path><path d="M164.82 279.38L164.82 280.11L166.29 280.11L166.29 279.38L164.82 279.38ZM165.01 279.47L165.28 279.6L165.46 279.56L165.74 279.74L166.1 279.5L166.1 280.02L165.01 280.02L165.01 279.47ZM165.34 279.91L165.35 279.91L165.35 279.91L165.36 279.91L165.36 279.91L165.37 279.91L165.38 279.91L165.38 279.91L165.39 279.91L165.39 279.91L165.4 279.9L165.4 279.9L165.41 279.9L165.42 279.9L165.42 279.9L165.43 279.9L165.43 279.89L165.43 279.89L165.44 279.89L165.44 279.89L165.45 279.89L165.45 279.88L165.45 279.88L165.46 279.88L165.46 279.88L165.46 279.87L165.47 279.87L165.47 279.87L165.47 279.86L165.48 279.86L165.48 279.86L165.48 279.86L165.48 279.85L165.48 279.85L165.48 279.85L165.48 279.84L165.49 279.84L165.49 279.84L165.49 279.83L165.49 279.83L165.49 279.83L165.48 279.82L165.48 279.82L165.48 279.82L165.48 279.81L165.48 279.81L165.48 279.81L165.48 279.8L165.47 279.8L165.47 279.8L165.47 279.8L165.46 279.79L165.46 279.79L165.46 279.79L165.45 279.79L165.45 279.78L165.45 279.78L165.44 279.78L165.44 279.78L165.43 279.77L165.43 279.77L165.43 279.77L165.42 279.77L165.42 279.77L165.41 279.77L165.4 279.76L165.4 279.76L165.39 279.76L165.39 279.76L165.38 279.76L165.38 279.76L165.37 279.76L165.36 279.76L165.36 279.75L165.35 279.75L165.35 279.75L165.34 279.75L165.33 279.75L165.33 279.75L165.32 279.75L165.31 279.75L165.31 279.75L165.3 279.75L165.29 279.75L165.29 279.76L165.28 279.76L165.28 279.76L165.27 279.76L165.26 279.76L165.26 279.76L165.25 279.76L165.25 279.76L165.24 279.77L165.24 279.77L165.23 279.77L165.23 279.77L165.22 279.77L165.22 279.77L165.21 279.78L165.21 279.78L165.2 279.78L165.2 279.78L165.2 279.79L165.19 279.79L165.19 279.79L165.19 279.79L165.18 279.8L165.18 279.8L165.18 279.8L165.18 279.8L165.17 279.81L165.17 279.81L165.17 279.81L165.17 279.82L165.17 279.82L165.17 279.82L165.17 279.83L165.17 279.83L165.17 279.83L165.17 279.84L165.17 279.84L165.17 279.84L165.17 279.85L165.17 279.85L165.17 279.85L165.17 279.86L165.17 279.86L165.18 279.86L165.18 279.86L165.18 279.87L165.18 279.87L165.19 279.87L165.19 279.88L165.19 279.88L165.2 279.88L165.2 279.88L165.2 279.89L165.21 279.89L165.21 279.89L165.22 279.89L165.22 279.89L165.23 279.9L165.23 279.9L165.24 279.9L165.24 279.9L165.25 279.9L165.25 279.9L165.26 279.91L165.26 279.91L165.27 279.91L165.28 279.91L165.28 279.91L165.29 279.91L165.29 279.91L165.3 279.91L165.31 279.91L165.31 279.91L165.32 279.91L165.33 279.91L165.33 279.91L165.34 279.91Z" id="daZQxNO9c"></path><path d="M114.08 475.78L114.08 140.8L509.82 140.8L509.82 475.78L114.08 475.78ZM163.55 433.91L237.75 371.1L287.21 392.03L361.42 308.29L460.35 419.95L460.35 182.67L163.55 182.67L163.55 433.91ZM253.66 229.9L255.41 230.05L257.14 230.26L258.84 230.52L260.52 230.84L262.17 231.22L263.8 231.64L265.39 232.12L266.96 232.66L268.5 233.24L270.01 233.87L271.48 234.54L272.91 235.27L274.31 236.03L275.68 236.85L277 237.7L278.28 238.6L279.52 239.53L280.72 240.51L281.87 241.52L282.98 242.57L284.04 243.66L285.05 244.78L286.01 245.93L286.91 247.12L287.77 248.33L288.57 249.58L289.31 250.85L290 252.15L290.62 253.48L291.19 254.83L291.7 256.21L292.14 257.61L292.52 259.03L292.83 260.47L293.08 261.93L293.25 263.41L293.36 264.91L293.4 266.42L293.36 267.93L293.25 269.42L293.08 270.9L292.83 272.36L292.52 273.8L292.14 275.22L291.7 276.62L291.19 278L290.62 279.35L290 280.68L289.31 281.98L288.57 283.25L287.77 284.5L286.91 285.72L286.01 286.9L285.05 288.05L284.04 289.17L282.98 290.26L281.87 291.31L280.72 292.32L279.52 293.3L278.28 294.23L277 295.13L275.68 295.99L274.31 296.8L272.91 297.57L271.48 298.29L270.01 298.96L268.5 299.59L266.96 300.18L265.39 300.71L263.8 301.19L262.17 301.61L260.52 301.99L258.84 302.31L257.14 302.57L255.41 302.78L253.66 302.93L251.9 303.02L250.11 303.05L248.33 303.02L246.56 302.93L244.82 302.78L243.09 302.57L241.39 302.31L239.71 301.99L238.06 301.61L236.43 301.19L234.84 300.71L233.27 300.18L231.73 299.59L230.22 298.96L228.75 298.29L227.31 297.57L225.91 296.8L224.55 295.99L223.23 295.13L221.95 294.23L220.71 293.3L219.51 292.32L218.36 291.31L217.25 290.26L216.19 289.17L215.18 288.05L214.22 286.9L213.32 285.72L212.46 284.5L211.66 283.25L210.92 281.98L210.23 280.68L209.6 279.35L209.04 278L208.53 276.62L208.09 275.22L207.71 273.8L207.4 272.36L207.15 270.9L206.97 269.42L206.87 267.93L206.83 266.42L206.87 264.91L206.97 263.41L207.15 261.93L207.4 260.47L207.71 259.03L208.09 257.61L208.53 256.21L209.04 254.83L209.6 253.48L210.23 252.15L210.92 250.85L211.66 249.58L212.46 248.33L213.32 247.12L214.22 245.93L215.18 244.78L216.19 243.66L217.25 242.57L218.36 241.52L219.51 240.51L220.71 239.53L221.95 238.6L223.23 237.7L224.55 236.85L225.91 236.03L227.31 235.27L228.75 234.54L230.22 233.87L231.73 233.24L233.27 232.66L234.84 232.12L236.43 231.64L238.06 231.22L239.71 230.84L241.39 230.52L243.09 230.26L244.82 230.05L246.56 229.9L248.33 229.81L250.11 229.78L251.9 229.81L253.66 229.9Z" id="d1RQSKMMuU"></path></defs><g><g><g><use xlink:href="#d5BtXAdFt" opacity="1" fill="#be381a" fill-opacity="1"></use></g><g><use xlink:href="#daZQxNO9c" opacity="1" fill="#5cfe61" fill-opacity="1"></use></g><g><use xlink:href="#d1RQSKMMuU" opacity="1" fill="#475ef8" fill-opacity="1"></use></g></g></g></svg>